<svg width="134" height="126" xmlns="http://www.w3.org/2000/svg" xmlns:xlink="http://www.w3.org/1999/xlink" xml:space="preserve" overflow="hidden"><g transform="translate(-2914 -1248)"><path d="M3038.88 1374 3020.63 1374 3020.63 1365.37 3038.88 1365.37 3038.88 1346.96 3048 1346.96 3048 1365.37 3048 1374 3038.88 1374 3038.88 1374ZM3038.88 1302.08 3048 1302.08 3048 1329.12 3038.88 1329.12 3038.88 1302.08 3038.88 1302.08ZM3038.88 1257.21 3020.63 1257.21 3020.63 1248 3038.88 1248 3048 1248 3048 1257.21 3048 1284.25 3038.88 1284.25 3038.88 1257.21 3038.88 1257.21ZM2958.48 1365.37 3002.95 1365.37 3002.95 1374 2958.48 1374 2958.48 1365.37 2958.48 1365.37ZM2958.48 1248 3002.95 1248 3002.95 1257.21 2958.48 1257.21 2958.48 1248 2958.48 1248ZM2914 1374 2914 1365.37 2914 1338.33 2923.12 1338.33 2923.12 1365.37 2940.8 1365.37 2940.8 1374 2923.12 1374 2914 1374 2914 1374ZM2923.12 1275.04 2914 1275.04 2914 1257.21 2914 1248 2940.8 1248 2940.8 1257.21 2923.12 1257.21 2923.12 1275.04 2923.12 1275.04ZM2923.12 1319.92 2914 1319.92 2914 1292.88 2923.12 1292.88 2923.12 1319.92 2923.12 1319.92ZM2994.4 1319.92 2994.4 1338.33 2967.6 1338.33 2967.6 1319.92 2949.92 1319.92 2980.71 1289.42 3012.08 1319.92 2994.4 1319.92 2994.4 1319.92Z" fill="#FFFFFF" fill-rule="evenodd"/></g></svg>