<svg width="93" height="106" xmlns="http://www.w3.org/2000/svg" xmlns:xlink="http://www.w3.org/1999/xlink" xml:space="preserve" overflow="hidden"><defs><clipPath id="clip0"><rect x="1598" y="665" width="93" height="106"/></clipPath></defs><g clip-path="url(#clip0)" transform="translate(-1598 -665)"><path d="M1660 665 1598 665 1598 771 1691 771 1691 694.957 1660 665ZM1677.22 757.174 1610.63 757.174 1610.63 677.674 1654.26 677.674 1677.22 700.718 1677.22 757.174Z" fill="#FFFFFF" fill-rule="evenodd"/><path d="M1618 751 1671 751 1671 704 1618 704 1618 751ZM1644.5 710.383 1664.66 710.383 1664.66 724.309 1644.5 724.309 1644.5 710.383ZM1644.5 730.691 1664.66 730.691 1664.66 744.617 1644.5 744.617 1644.5 730.691ZM1624.34 710.383 1637.01 710.383 1637.01 724.309 1624.34 724.309 1624.34 710.383ZM1624.34 730.691 1637.01 730.691 1637.01 744.617 1624.34 744.617 1624.34 730.691Z" fill="#FFFFFF" fill-rule="evenodd"/></g></svg>